<?xml version="1.0" encoding="UTF-8" standalone="no"?>
<svg width="18px" height="18px" viewBox="0 0 46 46" version="1.1" xmlns="http://www.w3.org/2000/svg" xmlns:xlink="http://www.w3.org/1999/xlink">
    <defs>
        <filter x="-50%" y="-50%" width="200%" height="200%" filterUnits="objectBoundingBox" id="filter-1">
            <feOffset dx="0" dy="1" in="SourceAlpha" result="shadowOffsetOuter1"/>
            <feGaussianBlur stdDeviation="0.5" in="shadowOffsetOuter1" result="shadowBlurOuter1"/>
            <feColorMatrix values="0 0 0 0 0   0 0 0 0 0   0 0 0 0 0  0 0 0 0.168 0" in="shadowBlurOuter1" type="matrix" result="shadowMatrixOuter1"/>
            <feOffset dx="0" dy="0" in="SourceAlpha" result="shadowOffsetOuter2"/>
            <feGaussianBlur stdDeviation="0.5" in="shadowOffsetOuter2" result="shadowBlurOuter2"/>
            <feColorMatrix values="0 0 0 0 0   0 0 0 0 0   0 0 0 0 0  0 0 0 0.084 0" in="shadowBlurOuter2" type="matrix" result="shadowMatrixOuter2"/>
            <feMerge>
                <feMergeNode in="shadowMatrixOuter1"/>
                <feMergeNode in="shadowMatrixOuter2"/>
                <feMergeNode in="SourceGraphic"/>
            </feMerge>
        </filter>
    </defs>
    <g id="logo_googleg_48dp" sketch:type="MSArtboardGroup" fill="none" fill-rule="evenodd">
        <path d="M9.827,24c0-0.797,0.071-1.562,0.199-2.297h-9.625v4.425h5.469c-0.233,1.274-0.943,2.356-2.011,3.084v2.513h3.26c1.902-1.75,2.998-4.32,2.998-7.725" id="Shape" fill="#4285F4"/>
        <path d="M9.827,24c0,2.625-0.792,4.847-2.147,6.432l-3.26-2.513c0.884-0.591,1.572-1.457,1.957-2.481h-5.469v-4.425h9.625c0.128,0.735,0.199,1.5,0.199,2.297" id="Shape" fill="#34A853"/>
        <path d="M4.373,27.919c-1.321-0.882-2.118-2.236-2.118-3.919,0-1.683,0.797-3.037,2.118-3.919v2.513c-0.385,1.024-1.073,1.89-1.957,2.481l3.26,2.513c-0.884,0.591-1.572,1.457-1.957,2.481" id="Shape" fill="#FBBC05"/>
        <path d="M9.827,24c0,2.625-0.792,4.847-2.147,6.432l-3.26-2.513c0.884-0.591,1.572-1.457,1.957-2.481h-5.469v-4.425h9.625c0.128,0.735,0.199,1.5,0.199,2.297" id="Shape" fill="#EA4335"/>
    </g>
</svg>
